<svg width="20" height="20" viewBox="0 0 20 20" fill="none" xmlns="http://www.w3.org/2000/svg">
<g clip-path="url(#clip0_245_136)">
<path d="M18.3333 8.33325V5.34992C18.3333 5.155 18.3222 4.96024 18.3 4.76658C18.1887 3.74719 17.7631 2.78764 17.0823 2.02082C16.4015 1.25399 15.499 0.717827 14.5 0.486582C11.5348 -0.159264 8.46524 -0.159264 5.5 0.486582C4.50102 0.71794 3.59867 1.25414 2.91786 2.02094C2.23705 2.78775 1.81146 3.74723 1.7 4.76658C1.67784 4.96024 1.66671 5.155 1.66667 5.34992V8.33325C1.22464 8.33325 0.800716 8.50884 0.488155 8.82141C0.175595 9.13397 0 9.55789 0 9.99992L0 10.8332C0 11.2753 0.175595 11.6992 0.488155 12.0118C0.800716 12.3243 1.22464 12.4999 1.66667 12.4999V14.1666C1.66628 14.8135 1.81671 15.4516 2.10602 16.0302C2.39534 16.6089 2.81556 17.1121 3.33333 17.4999V17.9166C3.33281 18.4332 3.52428 18.9316 3.87057 19.3151C4.21686 19.6985 4.69326 19.9395 5.20729 19.9915C5.72132 20.0434 6.23631 19.9025 6.65228 19.596C7.06825 19.2896 7.35552 18.8396 7.45833 18.3332H12.5417C12.6445 18.8396 12.9318 19.2896 13.3477 19.596C13.7637 19.9025 14.2787 20.0434 14.7927 19.9915C15.3067 19.9395 15.7831 19.6985 16.1294 19.3151C16.4757 18.9316 16.6672 18.4332 16.6667 17.9166V17.4999C17.1844 17.1121 17.6047 16.6089 17.894 16.0302C18.1833 15.4516 18.3337 14.8135 18.3333 14.1666V12.4999C18.7754 12.4999 19.1993 12.3243 19.5118 12.0118C19.8244 11.6992 20 11.2753 20 10.8332V9.99992C20 9.55789 19.8244 9.13397 19.5118 8.82141C19.1993 8.50884 18.7754 8.33325 18.3333 8.33325ZM3.33333 10.8332V5.83325H16.6667V10.8332H3.33333ZM5.87667 2.10992C8.59488 1.51861 11.4085 1.51861 14.1267 2.10992C14.6548 2.23299 15.144 2.48536 15.5504 2.84435C15.9569 3.20334 16.2677 3.6577 16.455 4.16658H13.3333C13.3333 3.94557 13.2455 3.73361 13.0893 3.57733C12.933 3.42105 12.721 3.33325 12.5 3.33325H7.5C7.27899 3.33325 7.06702 3.42105 6.91074 3.57733C6.75446 3.73361 6.66667 3.94557 6.66667 4.16658H3.545C3.73262 3.6573 4.04396 3.20268 4.45099 2.84366C4.85802 2.48464 5.34795 2.23249 5.87667 2.10992ZM14.1667 16.6666H5.83333C5.17029 16.6666 4.53441 16.4032 4.06557 15.9343C3.59673 15.4655 3.33333 14.8296 3.33333 14.1666V12.4999H5V13.3332C5 13.5543 5.0878 13.7662 5.24408 13.9225C5.40036 14.0788 5.61232 14.1666 5.83333 14.1666C6.05435 14.1666 6.26631 14.0788 6.42259 13.9225C6.57887 13.7662 6.66667 13.5543 6.66667 13.3332V12.4999H13.3333V13.3332C13.3333 13.5543 13.4211 13.7662 13.5774 13.9225C13.7337 14.0788 13.9457 14.1666 14.1667 14.1666C14.3877 14.1666 14.5996 14.0788 14.7559 13.9225C14.9122 13.7662 15 13.5543 15 13.3332V12.4999H16.6667V14.1666C16.6667 14.8296 16.4033 15.4655 15.9344 15.9343C15.4656 16.4032 14.8297 16.6666 14.1667 16.6666Z" fill="#32BB78"/>
</g>
<defs>
<clipPath id="clip0_245_136">
<rect width="20" height="20" fill="white"/>
</clipPath>
</defs>
</svg>
