<svg width="20" height="20" viewBox="0 0 20 20" fill="none" xmlns="http://www.w3.org/2000/svg">
<g clip-path="url(#clip0_215_8259)">
<path d="M19.0484 0.951773C18.1409 0.04344 16.8292 -0.23906 15.6017 0.22344L1.94004 5.88511C0.326711 6.49261 -0.171623 7.99844 0.0508774 9.22011C0.274211 10.4434 1.27088 11.6768 2.99588 11.6768H8.31171V17.0051C8.31171 18.7293 9.54504 19.7268 10.7675 19.9484C10.95 19.9818 11.1384 19.9993 11.3292 19.9993C12.42 19.9993 13.5859 19.4376 14.095 18.0868L19.7867 4.37261C20.24 3.17094 19.9575 1.85927 19.0484 0.951773ZM18.2367 3.75927L12.545 17.4734C12.2567 18.2359 11.5909 18.4051 11.0667 18.3101C10.54 18.2143 9.97754 17.8209 9.97754 17.0059V10.8443C9.97754 10.3834 9.60504 10.0109 9.14421 10.0109H2.99588C2.18004 10.0109 1.78671 9.44844 1.69088 8.92177C1.59588 8.39594 1.76504 7.73094 2.55338 7.43427L16.215 1.77261C16.4034 1.70177 16.5942 1.66677 16.7817 1.66677C17.1825 1.66677 17.5667 1.82594 17.8709 2.13011C18.3167 2.57594 18.4492 3.19511 18.2367 3.75927Z" fill="#32BB78"/>
</g>
<defs>
<clipPath id="clip0_215_8259">
<rect width="20" height="20" fill="white"/>
</clipPath>
</defs>
</svg>
