<svg width="100" height="100" viewBox="0 0 100 100" fill="none" xmlns="http://www.w3.org/2000/svg">
<g filter="url(#filter0_d_215_8361)">
<circle cx="50" cy="50" r="25" fill="#32BB78"/>
</g>
<g clip-path="url(#clip0_215_8361)">
<path d="M51.5949 61.999C51.3659 61.999 51.1399 61.978 50.9209 61.938C49.4539 61.671 47.9739 60.475 47.9739 58.406V52.012H41.5949C39.5239 52.013 38.3279 50.532 38.0609 49.064C37.7939 47.597 38.3919 45.791 40.3289 45.061L56.7229 38.268C58.1959 37.713 59.7699 38.052 60.8589 39.142C61.9499 40.232 62.2889 41.805 61.7449 43.247L54.9149 59.704C54.3039 61.325 52.9029 61.999 51.5949 61.999Z" fill="white"/>
</g>
<defs>
<filter id="filter0_d_215_8361" x="0" y="0" width="100" height="100" filterUnits="userSpaceOnUse" color-interpolation-filters="sRGB">
<feFlood flood-opacity="0" result="BackgroundImageFix"/>
<feColorMatrix in="SourceAlpha" type="matrix" values="0 0 0 0 0 0 0 0 0 0 0 0 0 0 0 0 0 0 127 0" result="hardAlpha"/>
<feOffset/>
<feGaussianBlur stdDeviation="12.5"/>
<feComposite in2="hardAlpha" operator="out"/>
<feColorMatrix type="matrix" values="0 0 0 0 0 0 0 0 0 0 0 0 0 0 0 0 0 0 0.35 0"/>
<feBlend mode="normal" in2="BackgroundImageFix" result="effect1_dropShadow_215_8361"/>
<feBlend mode="normal" in="SourceGraphic" in2="effect1_dropShadow_215_8361" result="shape"/>
</filter>
<clipPath id="clip0_215_8361">
<rect width="24" height="24" fill="white" transform="translate(38 38)"/>
</clipPath>
</defs>
</svg>
