<svg width="88" height="88" viewBox="0 0 88 88" fill="none" xmlns="http://www.w3.org/2000/svg">
<g filter="url(#filter0_d_215_8687)">
<circle cx="44" cy="44" r="15" fill="white"/>
<circle cx="44" cy="44" r="17" stroke="#2A55FA" stroke-width="4"/>
</g>
<g clip-path="url(#clip0_215_8687)">
<path d="M50 42.8C49.9732 43.9403 49.6895 45.0598 49.1701 46.0753C48.6507 47.0907 47.9089 47.976 47 48.665V50.6C47 50.7592 46.9368 50.9118 46.8243 51.0243C46.7117 51.1368 46.5591 51.2 46.4 51.2C46.2409 51.2 46.0883 51.1368 45.9757 51.0243C45.8632 50.9118 45.8 50.7592 45.8 50.6V38C45.7946 37.7746 45.8562 37.5526 45.977 37.3622C46.0978 37.1718 46.2724 37.0215 46.4786 36.9302C46.7155 36.8339 46.9754 36.8086 47.2264 36.8575C47.4774 36.9064 47.7088 37.0274 47.8922 37.2056C49.2838 38.7326 50.038 40.7344 50 42.8ZM43.4 36.8C43.2409 36.8 43.0883 36.8633 42.9757 36.9758C42.8632 37.0883 42.8 37.2409 42.8 37.4V41C42.7985 41.371 42.6823 41.7324 42.4675 42.0349C42.2527 42.3373 41.9497 42.566 41.6 42.6896V37.4C41.6 37.2409 41.5368 37.0883 41.4243 36.9758C41.3117 36.8633 41.1591 36.8 41 36.8C40.8409 36.8 40.6883 36.8633 40.5757 36.9758C40.4632 37.0883 40.4 37.2409 40.4 37.4V42.6896C40.0503 42.566 39.7473 42.3373 39.5325 42.0349C39.3177 41.7324 39.2015 41.371 39.2 41V37.4C39.2 37.2409 39.1368 37.0883 39.0243 36.9758C38.9117 36.8633 38.7591 36.8 38.6 36.8C38.4409 36.8 38.2883 36.8633 38.1757 36.9758C38.0632 37.0883 38 37.2409 38 37.4V41C38.0009 41.6914 38.2401 42.3613 38.6772 42.8968C39.1144 43.4323 39.7228 43.8008 40.4 43.94V50.6C40.4 50.7592 40.4632 50.9118 40.5757 51.0243C40.6883 51.1368 40.8409 51.2 41 51.2C41.1591 51.2 41.3117 51.1368 41.4243 51.0243C41.5368 50.9118 41.6 50.7592 41.6 50.6V43.94C42.2772 43.8008 42.8856 43.4323 43.3228 42.8968C43.7599 42.3613 43.9991 41.6914 44 41V37.4C44 37.2409 43.9368 37.0883 43.8243 36.9758C43.7117 36.8633 43.5591 36.8 43.4 36.8Z" fill="#2A55FA"/>
</g>
<defs>
<filter id="filter0_d_215_8687" x="0" y="0" width="88" height="88" filterUnits="userSpaceOnUse" color-interpolation-filters="sRGB">
<feFlood flood-opacity="0" result="BackgroundImageFix"/>
<feColorMatrix in="SourceAlpha" type="matrix" values="0 0 0 0 0 0 0 0 0 0 0 0 0 0 0 0 0 0 127 0" result="hardAlpha"/>
<feOffset/>
<feGaussianBlur stdDeviation="12.5"/>
<feComposite in2="hardAlpha" operator="out"/>
<feColorMatrix type="matrix" values="0 0 0 0 0 0 0 0 0 0 0 0 0 0 0 0 0 0 0.35 0"/>
<feBlend mode="normal" in2="BackgroundImageFix" result="effect1_dropShadow_215_8687"/>
<feBlend mode="normal" in="SourceGraphic" in2="effect1_dropShadow_215_8687" result="shape"/>
</filter>
<clipPath id="clip0_215_8687">
<rect width="14.4" height="14.4" fill="white" transform="translate(36.8 36.8)"/>
</clipPath>
</defs>
</svg>
