<svg width="88" height="88" viewBox="0 0 88 88" fill="none" xmlns="http://www.w3.org/2000/svg">
<g filter="url(#filter0_d_245_158)">
<circle cx="44" cy="44" r="15" fill="white"/>
<circle cx="44" cy="44" r="17" stroke="#2A55FA" stroke-width="4"/>
</g>
<g clip-path="url(#clip0_245_158)">
<path d="M47.6 46.4001H50V47.0001C49.9987 47.4635 49.8895 47.9202 49.6812 48.3341C49.473 48.748 49.1713 49.1078 48.8 49.3851V49.7001C48.7997 50.0716 48.6615 50.4297 48.4123 50.7052C48.163 50.9806 47.8204 51.1537 47.4508 51.1911C47.0812 51.2284 46.7109 51.1273 46.4116 50.9073C46.1123 50.6873 45.9053 50.364 45.8306 50.0001H42.1706C42.0973 50.3653 41.8906 50.6902 41.5909 50.9114C41.2912 51.1326 40.9199 51.2345 40.5493 51.197C40.1787 51.1596 39.8353 50.9856 39.5859 50.7089C39.3365 50.4322 39.1989 50.0726 39.2 49.7001V49.3851C38.8288 49.1078 38.5271 48.748 38.3189 48.3341C38.1106 47.9202 38.0014 47.4635 38 47.0001V46.4001H40.4V47.0001C40.4 47.1592 40.4633 47.3119 40.5758 47.4244C40.6883 47.5369 40.8409 47.6001 41 47.6001C41.1592 47.6001 41.3118 47.5369 41.4243 47.4244C41.5368 47.3119 41.6 47.1592 41.6 47.0001V46.4001H46.4V47.0001C46.4 47.1592 46.4633 47.3119 46.5758 47.4244C46.6883 47.5369 46.8409 47.6001 47 47.6001C47.1592 47.6001 47.3118 47.5369 47.4243 47.4244C47.5368 47.3119 47.6 47.1592 47.6 47.0001V46.4001ZM42.2 38.6001H45.8C45.9592 38.6001 46.1118 38.6633 46.2243 38.7759C46.3368 38.8884 46.4 39.041 46.4 39.2001H49.6874C49.4685 38.6907 49.133 38.2398 48.7079 37.8838C48.2828 37.5278 47.78 37.2766 47.24 37.1505C45.1051 36.6855 42.895 36.6855 40.76 37.1505C40.2201 37.2766 39.7173 37.5278 39.2922 37.8838C38.8671 38.2398 38.5316 38.6907 38.3126 39.2001H41.6C41.6 39.041 41.6633 38.8884 41.7758 38.7759C41.8883 38.6633 42.0409 38.6001 42.2 38.6001ZM50 42.2001V40.6521C50 40.5663 49.9844 40.4847 49.979 40.4001H38.021C38.0156 40.4847 38 40.5663 38 40.6521V42.2001C37.6818 42.2001 37.3766 42.3265 37.1515 42.5516C36.9265 42.7766 36.8 43.0819 36.8 43.4001V44.0001C36.8 44.3184 36.9265 44.6236 37.1515 44.8486C37.3766 45.0737 37.6818 45.2001 38 45.2001H50C50.3183 45.2001 50.6235 45.0737 50.8486 44.8486C51.0736 44.6236 51.2 44.3184 51.2 44.0001V43.4001C51.2 43.0819 51.0736 42.7766 50.8486 42.5516C50.6235 42.3265 50.3183 42.2001 50 42.2001Z" fill="#2A55FA"/>
</g>
<defs>
<filter id="filter0_d_245_158" x="0" y="0" width="88" height="88" filterUnits="userSpaceOnUse" color-interpolation-filters="sRGB">
<feFlood flood-opacity="0" result="BackgroundImageFix"/>
<feColorMatrix in="SourceAlpha" type="matrix" values="0 0 0 0 0 0 0 0 0 0 0 0 0 0 0 0 0 0 127 0" result="hardAlpha"/>
<feOffset/>
<feGaussianBlur stdDeviation="12.5"/>
<feComposite in2="hardAlpha" operator="out"/>
<feColorMatrix type="matrix" values="0 0 0 0 0 0 0 0 0 0 0 0 0 0 0 0 0 0 0.35 0"/>
<feBlend mode="normal" in2="BackgroundImageFix" result="effect1_dropShadow_245_158"/>
<feBlend mode="normal" in="SourceGraphic" in2="effect1_dropShadow_245_158" result="shape"/>
</filter>
<clipPath id="clip0_245_158">
<rect width="14.4" height="14.4" fill="white" transform="translate(36.8 36.8)"/>
</clipPath>
</defs>
</svg>
