<svg width="88" height="88" viewBox="0 0 88 88" fill="none" xmlns="http://www.w3.org/2000/svg">
<g filter="url(#filter0_d_215_8697)">
<circle cx="44" cy="44" r="15" fill="white"/>
<circle cx="44" cy="44" r="17" stroke="#2A55FA" stroke-width="4"/>
</g>
<g clip-path="url(#clip0_215_8697)">
<path d="M44 36.8C40.0298 36.8 36.8 40.0298 36.8 44C36.8 47.9702 40.0298 51.2 44 51.2C47.9702 51.2 51.2 47.9702 51.2 44C51.2 40.0298 47.9702 36.8 44 36.8ZM44.9 45.2H42.2V47.6C42.2 47.9312 41.9318 48.2 41.6 48.2C41.2682 48.2 41 47.9312 41 47.6V42.2C41 40.8764 42.0764 39.8 43.4 39.8H44.9C46.3886 39.8 47.6 41.0114 47.6 42.5C47.6 43.9886 46.3886 45.2 44.9 45.2ZM46.4 42.5C46.4 43.3268 45.7274 44 44.9 44H42.2V42.2C42.2 41.5382 42.7382 41 43.4 41H44.9C45.7274 41 46.4 41.6732 46.4 42.5Z" fill="#2A55FA"/>
</g>
<defs>
<filter id="filter0_d_215_8697" x="0" y="0" width="88" height="88" filterUnits="userSpaceOnUse" color-interpolation-filters="sRGB">
<feFlood flood-opacity="0" result="BackgroundImageFix"/>
<feColorMatrix in="SourceAlpha" type="matrix" values="0 0 0 0 0 0 0 0 0 0 0 0 0 0 0 0 0 0 127 0" result="hardAlpha"/>
<feOffset/>
<feGaussianBlur stdDeviation="12.5"/>
<feComposite in2="hardAlpha" operator="out"/>
<feColorMatrix type="matrix" values="0 0 0 0 0 0 0 0 0 0 0 0 0 0 0 0 0 0 0.35 0"/>
<feBlend mode="normal" in2="BackgroundImageFix" result="effect1_dropShadow_215_8697"/>
<feBlend mode="normal" in="SourceGraphic" in2="effect1_dropShadow_215_8697" result="shape"/>
</filter>
<clipPath id="clip0_215_8697">
<rect width="14.4" height="14.4" fill="white" transform="translate(36.8 36.8)"/>
</clipPath>
</defs>
</svg>
