<svg width="20" height="20" viewBox="0 0 20 20" fill="none" xmlns="http://www.w3.org/2000/svg">
<g clip-path="url(#clip0_215_8279)">
<path d="M6.66667 15.8333C6.20583 15.8333 5.83333 15.46 5.83333 15V7.5C5.83333 5.66167 7.32833 4.16667 9.16667 4.16667H11.25C13.3175 4.16667 15 5.84917 15 7.91667C15 9.98417 13.3175 11.6667 11.25 11.6667H7.5V15C7.5 15.46 7.1275 15.8333 6.66667 15.8333ZM7.5 10H11.25C12.3992 10 13.3333 9.065 13.3333 7.91667C13.3333 6.76833 12.3992 5.83333 11.25 5.83333H9.16667C8.2475 5.83333 7.5 6.58083 7.5 7.5V10ZM10 20C4.48583 20 0 15.5142 0 10C0 4.48583 4.48583 0 10 0C15.5142 0 20 4.48583 20 10C20 15.5142 15.5142 20 10 20ZM10 1.66667C5.405 1.66667 1.66667 5.405 1.66667 10C1.66667 14.595 5.405 18.3333 10 18.3333C14.595 18.3333 18.3333 14.595 18.3333 10C18.3333 5.405 14.595 1.66667 10 1.66667Z" fill="#32BB78"/>
</g>
<defs>
<clipPath id="clip0_215_8279">
<rect width="20" height="20" fill="white"/>
</clipPath>
</defs>
</svg>
