<svg width="20" height="20" viewBox="0 0 20 20" fill="none" xmlns="http://www.w3.org/2000/svg">
<g clip-path="url(#clip0_215_8209)">
<path d="M4.17082 20.0049C3.71415 20.0049 3.25665 19.8399 2.90082 19.5082L1.24248 17.9674C-0.404184 16.3216 -0.404184 13.6782 1.22082 12.0541C2.00832 11.2674 3.05498 10.8341 4.16748 10.8341C5.27998 10.8341 6.32665 11.2674 7.11332 12.0541C7.90082 12.8407 8.33415 13.8874 8.33415 15.0007C8.33415 16.1141 7.90082 17.1599 7.11332 17.9466L5.44582 19.5057C5.08915 19.8391 4.63082 20.0057 4.17248 20.0057L4.17082 20.0049ZM4.16665 12.4999C3.49915 12.4999 2.87082 12.7599 2.39832 13.2324C1.42415 14.2066 1.42415 15.7924 2.39832 16.7674L4.03498 18.2874C4.11165 18.3582 4.22998 18.3582 4.30665 18.2874L5.95415 16.7482C6.40582 16.2957 6.66582 15.6682 6.66582 14.9999C6.66582 14.3316 6.40582 13.7041 5.93332 13.2316C5.46165 12.7599 4.83415 12.4999 4.16665 12.4999ZM15.8375 9.17157C15.3808 9.17157 14.9233 9.00573 14.5675 8.6749L12.9091 7.13407C11.2625 5.48823 11.2625 2.8449 12.8875 1.22073C13.6741 0.434066 14.7208 0.000732422 15.8341 0.000732422C16.9475 0.000732422 17.9925 0.434066 18.78 1.22073C20.405 2.84573 20.405 5.48907 18.78 7.11323L17.1125 8.6724C16.7558 9.00573 16.2966 9.1724 15.8383 9.1724L15.8375 9.17157ZM15.8333 1.66657C15.165 1.66657 14.5375 1.92657 14.065 2.39823C13.0908 3.37323 13.0908 4.95907 14.065 5.93407L15.7008 7.45407C15.7783 7.52573 15.8975 7.52407 15.9733 7.45407L17.6208 5.9149C18.575 4.9599 18.575 3.37407 17.6008 2.39907C17.1283 1.92657 16.5008 1.66657 15.8333 1.66657ZM20 16.6666C20 14.8282 18.505 13.3332 16.6666 13.3332H12.5C11.5808 13.3332 10.8333 12.5857 10.8333 11.6666C10.8333 10.9607 11.28 10.3299 11.9441 10.0949C12.3783 9.94157 12.6058 9.46573 12.4525 9.03157C12.2991 8.5974 11.8241 8.36907 11.3891 8.52323C10.06 8.9924 9.16665 10.2566 9.16665 11.6666C9.16665 13.5049 10.6616 14.9999 12.5 14.9999H16.6666C17.5858 14.9999 18.3333 15.7474 18.3333 16.6666C18.3333 17.5857 17.5858 18.3332 16.6666 18.3332H9.16665C8.70665 18.3332 8.33332 18.7066 8.33332 19.1666C8.33332 19.6266 8.70665 19.9999 9.16665 19.9999H16.6666C18.505 19.9999 20 18.5049 20 16.6666Z" fill="#32BB78"/>
</g>
<defs>
<clipPath id="clip0_215_8209">
<rect width="20" height="20" fill="white"/>
</clipPath>
</defs>
</svg>
