<svg width="20" height="20" viewBox="0 0 20 20" fill="none" xmlns="http://www.w3.org/2000/svg">
<g clip-path="url(#clip0_215_8264)">
<path d="M15.4841 1.78329L10.2633 0.0424565C10.0924 -0.0144777 9.90757 -0.0144777 9.73663 0.0424565L4.51496 1.78329C3.68504 2.05917 2.96314 2.58954 2.45183 3.29907C1.94051 4.00861 1.66577 4.86122 1.66663 5.73579V9.99996C1.66663 16.3025 9.33329 19.7833 9.66163 19.9283C9.76815 19.9756 9.88341 20.0001 9.99996 20.0001C10.1165 20.0001 10.2318 19.9756 10.3383 19.9283C10.6666 19.7833 18.3333 16.3025 18.3333 9.99996V5.73579C18.3341 4.86111 18.0592 4.00843 17.5478 3.29888C17.0363 2.58934 16.3142 2.05902 15.4841 1.78329ZM16.6666 9.99996C16.6666 14.5458 11.4008 17.5275 9.99996 18.2408C8.59746 17.53 3.33329 14.5575 3.33329 9.99996V5.73579C3.33328 5.21112 3.49834 4.69975 3.80509 4.2741C4.11184 3.84845 4.54474 3.53009 5.04246 3.36412L9.99996 1.71162L14.9566 3.36412C15.4545 3.52995 15.8876 3.84824 16.1945 4.27391C16.5014 4.69957 16.6666 5.21102 16.6666 5.73579V9.99996Z" fill="#32BB78"/>
</g>
<defs>
<clipPath id="clip0_215_8264">
<rect width="20" height="20" fill="white"/>
</clipPath>
</defs>
</svg>
