<svg width="20" height="20" viewBox="0 0 20 20" fill="none" xmlns="http://www.w3.org/2000/svg">
<path d="M15.8333 8.02083V4.16667H16.6667C17.1275 4.16667 17.5 3.79417 17.5 3.33333C17.5 2.8725 17.1275 2.5 16.6667 2.5H15.7283C15.3575 1.06333 14.0508 0 12.5 0H7.5C5.66167 0 4.16667 1.495 4.16667 3.33333V8.02083C3.10583 8.65417 2.5 9.62583 2.5 10.4167C2.5 12.6967 4.45167 15.9667 8.6125 16.5692C8.21333 17.5 7.08333 17.5 7.08333 17.5C6.39333 17.5 5.83333 18.06 5.83333 18.75C5.83333 19.44 6.39333 20 7.08333 20H12.9167C13.6067 20 14.1667 19.44 14.1667 18.75C14.1667 18.06 13.6067 17.5 12.9167 17.5C12.9167 17.5 11.7867 17.5 11.3875 16.5692C15.5483 15.9667 17.5 12.6967 17.5 10.4167C17.5 9.62667 16.8942 8.65417 15.8333 8.02083ZM7.5 1.66667H12.5C13.4192 1.66667 14.1667 2.41417 14.1667 3.33333V7.52667L5.83333 7.50083V3.33333C5.83333 2.41417 6.58083 1.66667 7.5 1.66667ZM10 15C7.69917 15 6.14917 14.07 5.22917 12.97C6.6025 13.2858 8.32667 13.3333 10 13.3333C11.6733 13.3333 13.3975 13.285 14.7708 12.97C13.8508 14.07 12.3008 15 10 15ZM10 11.6667C6.13083 11.6667 4.1675 11.2458 4.16667 10.4183C4.17333 10.1883 4.64583 9.47583 5.67167 9.16667H14.3292C15.3533 9.47583 15.8275 10.1883 15.8342 10.4167C15.8342 11.2458 13.8717 11.6667 10.0008 11.6667H10Z" fill="#32BB78"/>
</svg>
