<svg width="20" height="20" viewBox="0 0 20 20" fill="none" xmlns="http://www.w3.org/2000/svg">
<g clip-path="url(#clip0_215_8269)">
<path d="M9.99996 0.833333V5.83333C9.99875 6.7935 9.66655 7.7239 9.05936 8.46771C8.45217 9.21152 7.60712 9.72325 6.66663 9.91667V19.1667C6.66663 19.3877 6.57883 19.5996 6.42255 19.7559C6.26627 19.9122 6.05431 20 5.83329 20C5.61228 20 5.40032 19.9122 5.24404 19.7559C5.08776 19.5996 4.99996 19.3877 4.99996 19.1667V9.91667C4.05947 9.72325 3.21441 9.21152 2.60722 8.46771C2.00003 7.7239 1.66784 6.7935 1.66663 5.83333V0.833333C1.66663 0.61232 1.75442 0.400358 1.9107 0.244078C2.06698 0.0877974 2.27895 0 2.49996 0C2.72097 0 2.93293 0.0877974 3.08921 0.244078C3.2455 0.400358 3.33329 0.61232 3.33329 0.833333V5.83333C3.33543 6.34855 3.4967 6.85052 3.79503 7.27058C4.09337 7.69064 4.5142 8.00826 4.99996 8.18V0.833333C4.99996 0.61232 5.08776 0.400358 5.24404 0.244078C5.40032 0.0877974 5.61228 0 5.83329 0C6.05431 0 6.26627 0.0877974 6.42255 0.244078C6.57883 0.400358 6.66663 0.61232 6.66663 0.833333V8.18C7.15238 8.00826 7.57322 7.69064 7.87155 7.27058C8.16989 6.85052 8.33116 6.34855 8.33329 5.83333V0.833333C8.33329 0.61232 8.42109 0.400358 8.57737 0.244078C8.73365 0.0877974 8.94561 0 9.16663 0C9.38764 0 9.5996 0.0877974 9.75588 0.244078C9.91216 0.400358 9.99996 0.61232 9.99996 0.833333ZM18.3333 8.33333C18.296 9.91704 17.902 11.4719 17.1806 12.8823C16.4592 14.2926 15.429 15.5221 14.1666 16.4792V19.1667C14.1666 19.3877 14.0788 19.5996 13.9225 19.7559C13.7663 19.9122 13.5543 20 13.3333 20C13.1123 20 12.9003 19.9122 12.744 19.7559C12.5878 19.5996 12.5 19.3877 12.5 19.1667V1.66667C12.4925 1.35355 12.578 1.04526 12.7458 0.780774C12.9136 0.516293 13.156 0.307509 13.4425 0.180833C13.7715 0.046971 14.1324 0.0118585 14.4811 0.0797868C14.8297 0.147715 15.1511 0.315742 15.4058 0.563333C17.3386 2.68413 18.3861 5.46441 18.3333 8.33333ZM16.6666 8.33333C16.6903 5.89346 15.7982 3.5334 14.1666 1.71917V14.225C15.7284 12.6569 16.624 10.5461 16.6666 8.33333Z" fill="#32BB78"/>
</g>
<defs>
<clipPath id="clip0_215_8269">
<rect width="20" height="20" fill="white"/>
</clipPath>
</defs>
</svg>
