<svg width="24" height="24" viewBox="0 0 24 24" fill="none" xmlns="http://www.w3.org/2000/svg">
<g clip-path="url(#clip0_215_6094)">
<path d="M20.94 8.71005C20.27 8.14005 19.38 7.89005 18.5 8.04005C17.93 8.13005 17.42 8.40005 17.01 8.78005C16.48 8.30005 15.77 8.00005 15 8.00005C14.98 8.00005 14.96 8.00005 14.94 8.00005L15.92 3.67005C16.12 2.81005 15.92 1.91005 15.4 1.20005C14.88 0.500049 14.07 0.0600494 13.18 4.94034e-05C11.75 -0.0899506 10.39 0.950049 10.05 2.43005L9.5 4.82005L8.95 2.43005C8.61 0.950049 7.26 -0.0799506 5.82 4.94034e-05C4.93 0.0600494 4.12 0.500049 3.6 1.20005C3.07 1.91005 2.89 2.81005 3.08 3.66005L4.9 11.61L1.88 14.62C1.31 15.19 1 15.94 1 16.74C1 17.54 1.31 18.2901 1.88 18.8601L7 23.98H22V11C22 10.12 21.62 9.29005 20.94 8.71005ZM16 11V13C16 13.55 15.55 14 15 14C14.45 14 14 13.55 14 13V11C14 10.45 14.45 10 15 10C15.55 10 16 10.45 16 11ZM5.03 3.23005C4.96 2.94005 5.03 2.64005 5.2 2.41005C5.38 2.17005 5.64 2.03005 5.95 2.01005C6.41 1.98005 6.88 2.37005 7 2.89005L9.01 11.55C8.38 10.9801 7.56 10.73 6.77 10.79L5.04 3.23005H5.03ZM7.83 22L3.29 17.46C3.1 17.27 3 17.0201 3 16.75C3 16.48 3.1 16.2301 3.29 16.0401L6.29 13.05C6.68 12.66 7.31 12.66 7.7 13.05C8.09 13.4401 8.09 14.08 7.7 14.46L5.44 16.71L6.85 18.13L9.11 15.88C10 14.99 10.21 13.67 9.74 12.58L12 2.88005C12.12 2.36005 12.61 1.97005 13.05 2.00005C13.36 2.02005 13.62 2.16005 13.8 2.40005C13.98 2.64005 14.04 2.94005 13.97 3.23005L12.62 9.17005C12.23 9.68005 11.99 10.3101 11.99 11V13C11.99 14.65 13.34 16 14.99 16C15.76 16 16.46 15.71 16.99 15.23C17.52 15.71 18.22 16 18.99 16C19.34 16 19.68 15.94 19.99 15.83V22H7.83ZM19 14C18.45 14 18 13.55 18 13V11.11C18 10.57 18.36 10.09 18.82 10.0201C19.12 9.97005 19.42 10.05 19.64 10.24C19.86 10.43 19.99 10.71 19.99 11V13C19.99 13.55 19.54 14 18.99 14H19Z" fill="#585858"/>
</g>
<defs>
<clipPath id="clip0_215_6094">
<rect width="24" height="24" fill="white"/>
</clipPath>
</defs>
</svg>
